<?xml version="1.0" encoding="UTF-8"?>
<svg id="Camada_2" data-name="Camada 2" xmlns="http://www.w3.org/2000/svg" viewBox="0 0 263.81 66.35">
  <defs>
    <style>
      .cls-1 {
        fill: #ed2e38;
      }

      .cls-2 {
        fill: #59595c;
      }
    </style>
  </defs>
  <g id="Camada_1-2" data-name="Camada 1">
    <path class="cls-2" d="M11.14,63H2.31v-12.07h8.68v2.09h-5.74v2.35h4.62v2.37h-4.62v2.76h5.88v2.5ZM20.68,63h-3.06l-1.83-2.9-1.82,2.91h-2.4s3.09-4.73,3.09-4.73l-2.8-4.3h3.08l1.55,2.63,1.54-2.64h2.37s-2.77,4.3-2.77,4.3l3.07,4.73ZM30.06,59.52c0,.77-.28,1.52-.84,2.25-.77,1.01-1.89,1.52-3.35,1.52s-2.5-.48-3.28-1.44c-.71-.88-1.07-2.02-1.07-3.42,0-1.11.29-2.1.87-2.98.77-1.15,1.88-1.73,3.33-1.73,1.14,0,2.1.29,2.89.87.87.64,1.3,1.5,1.3,2.59l-2.51.14c0-.65-.12-1.11-.38-1.36-.2-.2-.54-.3-1.02-.3-.54,0-.93.26-1.18.78-.25.52-.38,1.23-.38,2.12,0,.8.13,1.41.38,1.85.26.43.64.65,1.17.65.36,0,.66-.1.91-.3.36-.29.57-.74.62-1.36l2.51.12ZM39.58,59.95c-.2.94-.69,1.71-1.47,2.3-.78.59-1.64.89-2.58.89-1.48,0-2.64-.45-3.48-1.34-.77-.83-1.16-1.91-1.16-3.25s.37-2.47,1.1-3.37c.81-.99,1.89-1.48,3.25-1.48,1.56,0,2.7.52,3.42,1.57.61.87.91,2.06.91,3.57h-5.88c0,.79.2,1.4.58,1.84.35.39.76.59,1.26.59.39,0,.74-.12,1.06-.37.31-.25.51-.61.59-1.09l2.39.14ZM36.91,57.31c0-.63-.14-1.11-.41-1.43-.27-.33-.61-.49-1.01-.49-.43,0-.82.17-1.16.51-.35.34-.56.81-.63,1.42h3.21ZM43.5,63h-2.67v-12.07h2.67v12.07ZM53.74,59.95c-.2.94-.69,1.71-1.47,2.3-.78.59-1.64.89-2.58.89-1.49,0-2.64-.45-3.48-1.34-.77-.83-1.16-1.91-1.16-3.25s.37-2.47,1.11-3.37c.81-.99,1.89-1.48,3.25-1.48,1.56,0,2.7.52,3.42,1.57.61.87.91,2.06.91,3.57h-5.89c0,.79.2,1.4.59,1.84.34.39.76.59,1.26.59.39,0,.74-.12,1.06-.37.31-.25.51-.61.59-1.09l2.39.14ZM51.06,57.31c0-.63-.14-1.11-.41-1.43-.27-.33-.61-.49-1.01-.49-.43,0-.81.17-1.16.51-.35.34-.56.81-.63,1.42h3.21ZM52.85,52.42h-1.94s-1.55-.97-1.55-.97l-1.41.97h-1.82l3.23-2.63,3.49,2.63ZM63.12,63h-2.67v-5.26c0-.57-.11-1-.33-1.28-.22-.29-.49-.43-.82-.43-.38,0-.72.17-1.03.52-.31.35-.46.79-.46,1.34v5.12h-2.67v-9.02h2.53v1.53c.19-.51.55-.93,1.07-1.24.52-.32,1.09-.47,1.69-.47.72,0,1.33.21,1.82.62.58.5.87,1.19.87,2.07v6.51ZM72.78,59.52c0,.77-.28,1.52-.84,2.25-.77,1.01-1.89,1.52-3.35,1.52s-2.5-.48-3.28-1.44c-.71-.88-1.07-2.02-1.07-3.42,0-1.11.29-2.1.87-2.98.77-1.15,1.88-1.73,3.34-1.73,1.14,0,2.1.29,2.89.87.87.64,1.3,1.5,1.3,2.59l-2.51.14c0-.65-.12-1.11-.38-1.36-.2-.2-.54-.3-1.02-.3-.53,0-.93.26-1.18.78-.25.52-.38,1.23-.38,2.12,0,.8.13,1.41.38,1.85.26.43.64.65,1.17.65.36,0,.66-.1.91-.3.36-.29.57-.74.62-1.36l2.51.12ZM76.85,53.15h-2.53v-2.23h2.53v2.23ZM76.85,63h-2.53v-9.02h2.53v9.02ZM87.09,63h-2.66l-.14-1.39c-.17.44-.55.81-1.16,1.1-.61.3-1.25.45-1.94.45-.77,0-1.41-.19-1.91-.57-.58-.45-.88-1.1-.88-1.94,0-1.23.73-2.13,2.18-2.71,1.03-.42,2.2-.62,3.52-.62.04-.17.05-.32.05-.45,0-.45-.13-.79-.4-1.01-.27-.22-.61-.33-1.02-.33s-.79.12-1.09.36c-.3.24-.45.58-.45,1.02l-2.53-.28c.14-.89.56-1.57,1.25-2.03.74-.5,1.77-.75,3.1-.75,1.77,0,2.91.43,3.41,1.28.25.43.37,1.3.37,2.62v3.05c0,.5.01.9.04,1.2.03.3.11.64.24,1.01M84.16,58.7c-.68,0-1.3.13-1.87.39-.68.32-1.02.75-1.02,1.28,0,.31.1.57.31.78.21.21.48.31.83.31.46,0,.84-.13,1.12-.39.42-.38.62-1,.62-1.85v-.52ZM104.85,59.95c-.2.94-.69,1.71-1.47,2.3-.78.59-1.64.89-2.58.89-1.49,0-2.65-.45-3.48-1.34-.77-.83-1.16-1.91-1.16-3.25s.37-2.47,1.1-3.37c.81-.99,1.89-1.48,3.25-1.48,1.56,0,2.7.52,3.42,1.57.61.87.91,2.06.91,3.57h-5.89c0,.79.2,1.4.59,1.84.34.39.76.59,1.26.59.39,0,.74-.12,1.06-.37.31-.25.51-.61.59-1.09l2.39.14ZM102.18,57.31c0-.63-.14-1.11-.41-1.43-.27-.33-.61-.49-1.01-.49-.43,0-.81.17-1.16.51-.35.34-.56.81-.63,1.42h3.21ZM119.3,63h-2.67v-6.11c0-.28-.12-.54-.37-.75-.25-.21-.53-.32-.84-.32-.37,0-.66.15-.89.45-.29.37-.43.91-.43,1.61v5.13h-2.52v-5.4c0-.56-.12-.99-.37-1.31-.25-.31-.55-.47-.89-.47s-.68.16-.96.49c-.29.33-.43.76-.43,1.29v5.4h-2.68v-9.02h2.53v1.39c.24-.53.61-.95,1.11-1.24.5-.29,1.02-.44,1.57-.44s1.05.13,1.47.38c.42.26.72.64.88,1.15.37-.52.79-.91,1.27-1.16.48-.25.99-.38,1.52-.38.74,0,1.37.23,1.9.7.53.46.79,1.07.79,1.82v6.79ZM138.9,63h-2.39l-4.76-8.04v8.04h-2.25v-12.07h2.94l4.21,6.96v-6.96h2.25v12.07ZM148.56,63h-2.37v-1.53c-.06.47-.37.88-.93,1.24-.56.35-1.17.53-1.84.53-.72,0-1.31-.23-1.77-.68-.53-.53-.8-1.31-.8-2.33v-6.25h2.67v5.66c0,.46.1.8.29,1.03.19.22.43.34.73.34.38,0,.73-.16,1.04-.49.32-.33.47-.76.47-1.29v-5.25h2.5v9.02ZM155.86,62.98c-.59.1-1.01.17-1.26.2-.24.03-.54.04-.88.04-.88,0-1.53-.2-1.96-.59-.53-.49-.8-1.29-.8-2.42v-3.88h-1.41v-2.37h1.56l.27-2.5,2.26-.12v2.62h1.96v2.37h-1.96v3.16c0,.58.1.98.28,1.2.19.22.46.33.81.33.13,0,.34-.02.63-.05.29-.04.46-.06.51-.07v2.07ZM162.19,56.49c-.77,0-1.35.25-1.75.75-.33.43-.5.96-.5,1.6v4.15h-2.53v-9.02h2.39v1.53c.33-.65.55-1.03.64-1.12.36-.37.94-.55,1.75-.55v2.66ZM165.84,53.15h-2.53v-2.23h2.53v2.23ZM165.84,63h-2.53v-9.02h2.53v9.02ZM175.79,59.25c0,1.31-.49,2.3-1.46,2.98-.74.51-1.55.77-2.44.77l-.14.55c.62,0,1.07.12,1.37.38.26.21.39.51.39.89,0,.4-.14.75-.43,1.03-.32.33-.75.5-1.28.5-.29,0-.58-.04-.88-.13-.3-.09-.64-.24-1.02-.45l.29-.82c.2.13.41.24.62.31.21.08.4.12.55.12.5,0,.75-.17.75-.53,0-.16-.09-.31-.28-.42-.18-.12-.46-.17-.83-.17h-.39l.27-1.25c-1.12-.21-1.98-.73-2.59-1.53-.6-.81-.91-1.87-.91-3.19,0-1.6.45-2.84,1.36-3.71.77-.75,1.72-1.12,2.85-1.12s2.11.31,2.91.95c.86.68,1.28,1.56,1.28,2.64l-2.51.14c0-.57-.16-1.01-.48-1.3-.26-.24-.56-.36-.91-.36-.51,0-.92.28-1.22.84-.3.56-.45,1.21-.45,1.95s.14,1.27.41,1.71c.32.51.78.76,1.39.76.65,0,1.12-.55,1.41-1.64l2.37.12ZM185.6,63h-2.66l-.14-1.39c-.17.44-.55.81-1.16,1.1-.61.3-1.26.45-1.94.45-.77,0-1.41-.19-1.91-.57-.58-.45-.88-1.1-.88-1.94,0-1.23.73-2.13,2.18-2.71,1.03-.42,2.2-.62,3.53-.62.04-.17.05-.32.05-.45,0-.45-.13-.79-.4-1.01-.27-.22-.61-.33-1.02-.33s-.78.12-1.08.36c-.3.24-.45.58-.45,1.02l-2.53-.28c.14-.89.56-1.57,1.25-2.03.74-.5,1.77-.75,3.1-.75,1.77,0,2.91.43,3.41,1.28.25.43.37,1.3.37,2.62v3.05c0,.5.02.9.05,1.2.03.3.11.64.24,1.01M182.68,58.7c-.68,0-1.3.13-1.87.39-.68.32-1.02.75-1.02,1.28,0,.31.1.57.31.78.21.21.48.31.83.31.46,0,.84-.13,1.12-.39.42-.38.62-1,.62-1.85v-.52ZM184.43,51.21c-.27.44-.63.76-1.07.98-.37.18-.76.27-1.16.27-.32,0-.78-.13-1.39-.39-.32-.14-.57-.21-.75-.21-.43,0-.79.2-1.09.59l-.98-.84c.27-.38.6-.67.99-.87.39-.2.79-.3,1.22-.3.34,0,.84.13,1.48.39.31.12.53.18.68.18.19,0,.39-.06.61-.18.21-.12.47-.31.78-.6l.68.97ZM195.13,58.41c0,1.5-.4,2.68-1.2,3.56-.8.88-1.85,1.31-3.13,1.31-1.53,0-2.66-.53-3.37-1.59-.57-.84-.86-1.94-.86-3.28,0-1.75.55-3.03,1.66-3.85.77-.57,1.68-.86,2.71-.86,1.2,0,2.16.33,2.89,1,.87.8,1.3,2.03,1.3,3.71M192.33,58.41c0-1.94-.46-2.91-1.39-2.91-.52,0-.91.24-1.17.72-.26.48-.38,1.21-.38,2.18,0,.81.07,1.44.2,1.89.23.77.63,1.16,1.21,1.16.63,0,1.05-.26,1.27-.78.18-.43.27-1.18.27-2.26M214.71,50.92l-3.76,12.07h-3.23l-3.66-12.07h3.09l2.53,8.74,2.52-8.74h2.51ZM222.27,59.95c-.2.94-.69,1.71-1.47,2.3-.78.59-1.64.89-2.58.89-1.49,0-2.64-.45-3.48-1.34-.77-.83-1.16-1.91-1.16-3.25s.37-2.47,1.1-3.37c.81-.99,1.89-1.48,3.25-1.48,1.56,0,2.7.52,3.42,1.57.61.87.91,2.06.91,3.57h-5.88c0,.79.2,1.4.59,1.84.34.39.76.59,1.26.59.39,0,.74-.12,1.06-.37.31-.25.51-.61.59-1.09l2.39.14ZM219.6,57.31c0-.63-.14-1.11-.41-1.43-.27-.33-.61-.49-1.01-.49-.43,0-.81.17-1.16.51-.35.34-.56.81-.63,1.42h3.21ZM233.06,62.85c0,1-.41,1.8-1.21,2.41-.7.52-1.51.78-2.42.78h-3.09c-.95,0-1.77-.18-2.47-.55-.7-.37-1.04-.83-1.04-1.39,0-.93.52-1.53,1.55-1.8-.46-.19-.77-.43-.91-.7-.14-.27-.21-.64-.21-1.1s.19-.82.57-1.09c.3-.21.77-.4,1.41-.57-.62-.29-1.07-.64-1.35-1.07-.24-.36-.36-.76-.36-1.21v-.36c0-.86.4-1.49,1.21-1.89.81-.4,1.95-.61,3.42-.61.24,0,.56.04.96.11.4.07.73.17.98.3.13-.9.42-1.44.88-1.62.04-.01.69-.07,1.95-.18v1.8c-.08-.02-.15-.04-.2-.04-.2-.04-.36-.05-.46-.05-.26,0-.5.05-.71.14-.21.1-.36.27-.45.52.56.53.84,1.22.84,2.07s-.45,1.55-1.34,2.02c-.75.39-1.64.59-2.67.59-.65,0-1.18-.08-1.59-.23-.36.35-.53.64-.53.86,0,.21.15.37.45.49.3.12.84.18,1.61.18,1.46,0,2.58.11,3.33.32,1.24.34,1.86.97,1.86,1.87M229.26,56.49c0-.45-.16-.8-.47-1.03-.31-.24-.67-.36-1.05-.36-.48,0-.86.14-1.14.41-.27.27-.41.6-.41,1,0,.32.14.62.42.9.28.28.61.44.98.47.47,0,.86-.11,1.15-.32.34-.25.51-.61.51-1.07M230.38,63.67c0-.2-.13-.38-.4-.54-.27-.16-.55-.24-.85-.24h-1.55c-.23,0-.52-.03-.89-.09-.37-.06-.63-.09-.78-.09-.19,0-.35.1-.47.29-.12.19-.19.38-.19.57,0,.24.2.46.59.66.39.2.79.3,1.19.3h1.96c.31,0,.62-.1.93-.28.31-.19.46-.38.46-.57M241.74,59.95c-.2.94-.69,1.71-1.47,2.3-.78.59-1.64.89-2.58.89-1.48,0-2.65-.45-3.48-1.34-.77-.83-1.16-1.91-1.16-3.25s.37-2.47,1.11-3.37c.81-.99,1.89-1.48,3.25-1.48,1.56,0,2.7.52,3.42,1.57.61.87.91,2.06.91,3.57h-5.88c0,.79.2,1.4.59,1.84.34.39.76.59,1.26.59.39,0,.74-.12,1.06-.37.31-.25.51-.61.59-1.09l2.39.14ZM239.07,57.31c0-.63-.14-1.11-.41-1.43-.27-.33-.61-.49-1.01-.49-.43,0-.81.17-1.16.51-.35.34-.56.81-.63,1.42h3.21ZM248.61,62.98c-.59.1-1.01.17-1.26.2-.24.03-.54.04-.88.04-.88,0-1.53-.2-1.96-.59-.54-.49-.8-1.29-.8-2.42v-3.88h-1.41v-2.37h1.56l.27-2.5,2.26-.12v2.62h1.96v2.37h-1.96v3.16c0,.58.1.98.28,1.2.19.22.46.33.81.33.13,0,.34-.02.63-.05.29-.04.46-.06.51-.07v2.07ZM258.15,63h-2.66l-.14-1.39c-.17.44-.55.81-1.16,1.1-.61.3-1.25.45-1.94.45-.77,0-1.41-.19-1.91-.57-.58-.45-.87-1.1-.87-1.94,0-1.23.73-2.13,2.18-2.71,1.03-.42,2.2-.62,3.52-.62.04-.17.05-.32.05-.45,0-.45-.13-.79-.4-1.01-.27-.22-.61-.33-1.02-.33s-.79.12-1.09.36c-.3.24-.45.58-.45,1.02l-2.53-.28c.14-.89.56-1.57,1.25-2.03.74-.5,1.77-.75,3.1-.75,1.77,0,2.91.43,3.41,1.28.25.43.38,1.3.38,2.62v3.05c0,.5.01.9.04,1.2.03.3.11.64.24,1.01M255.23,58.7c-.68,0-1.3.13-1.87.39-.68.32-1.02.75-1.02,1.28,0,.31.1.57.31.78.21.21.48.31.83.31.46,0,.84-.13,1.12-.39.42-.38.62-1,.62-1.85v-.52ZM261.93,63h-2.67v-12.07h2.67v12.07Z"/>
    <path class="cls-1" d="M256.59,11.49h-1.58v-2.12h1.76c.41,0,.71.1.9.29.19.2.29.44.29.75,0,.21-.05.4-.15.57-.1.18-.24.3-.43.38-.19.08-.45.12-.79.12M257.59,12.47c-.1-.11-.25-.21-.44-.32.53-.09.93-.28,1.18-.6.26-.31.38-.69.38-1.15,0-.35-.08-.67-.23-.97-.16-.29-.36-.49-.62-.61-.26-.12-.63-.17-1.13-.17h-2.46v6.4h.73v-2.84h.85c.19,0,.33,0,.41.03.11.03.22.09.33.17.11.08.23.22.37.43.14.2.32.5.53.88l.73,1.33h.92l-.97-1.74c-.19-.34-.4-.62-.61-.85"/>
    <path class="cls-1" d="M256.42,16.85c-2.74,0-4.98-2.24-4.98-4.99s2.24-4.98,4.98-4.98,4.98,2.24,4.98,4.98-2.24,4.99-4.98,4.99M256.42,5.83c-3.32,0-6.03,2.71-6.03,6.03s2.71,6.03,6.03,6.03,6.03-2.71,6.03-6.03-2.71-6.03-6.03-6.03"/>
    <path class="cls-1" d="M258.05,25.84l5.76,2.1-8.44,16.06h-35.85l1.22-6.08c2.73-.07,4.55-.41,5.46-1.03.91-.62,1.68-2.35,2.23-5.19l3.86-19.95c.54-2.82,1.86-4.53,1.23-5.16-.63-.62-2.32-.97-5.04-1.03l1.45-5.55c2.85.11,5.17.19,6.98.25s2.03.08,3.27.08,1.98-.02,3.81-.08,4.2-.13,7.11-.25l-1.45,5.55c-2.77.07-4.61.42-5.53,1.06-.9.63-.88,2.34-1.43,5.13l-4.97,25.35,8.25-.52c1.58-.1,2.54-.34,5.81-2.33,3.26-2,6.06-7.37,6.27-8.39M175.7,22.09c.86-7.04,3.47-12.47,7.82-16.27,4.35-3.8,10.11-5.71,17.3-5.71s12.49,1.91,15.92,5.71c3.44,3.81,4.72,9.23,3.86,16.27-.87,7.06-3.48,12.5-7.86,16.3-4.36,3.8-10.15,5.71-17.33,5.71s-12.48-1.91-15.9-5.71c-3.42-3.8-4.69-9.24-3.83-16.3M208.77,22.08c.91-5.22.72-9.11-.59-11.67-1.31-2.56-3.74-3.84-7.29-3.84s-6.42,1.27-8.6,3.83c-2.18,2.55-3.72,6.45-4.64,11.68-.92,5.26-.74,9.15.54,11.67,1.28,2.52,3.71,3.78,7.29,3.78s6.45-1.26,8.63-3.8c2.19-2.54,3.74-6.42,4.65-11.65M171.77,0l3.47,13.03-5.79,2.36c-1.15-5.89-6.41-8.51-10.99-8.51h-3.52l-2.85,12.24c.22,0,.52.01.9.03.38.02.68.03.86.03,2.05,0,1.13-.26,1.96-.79.83-.53,1.39-3.09,1.69-4.54.02-.11.05-.29.08-.53.03-.25.05-.43.08-.56h6.3c-1.36,5.09-2.88,12.62-3.6,17.84h-6.04c.05-.16.1-.33.15-.51.05-.19.12-.46.19-.81.32-1.54.17-2.57-.43-3.11-1.38-1.24-.74-1.33-3.16-1.33l-2.16,7.11c-.83,2.72-.53,4.51.12,5.16.65.64,1.56,1,4.28,1.07l-1.71,5.82c-2.98-.13-4.58-.21-6.32-.26-1.75-.04-3.23-.07-4.46-.07s-1.24.02-3.05.07c-1.81.04-4.16.12-7.08.26l.93-5.82c2.73-.07,3.76-.41,4.67-1.03.9-.62,1.55-2.38,2.23-5.19l4.65-19.43c.66-2.77.52-4.51-.15-5.17-.67-.66-1.54-1-4.19-1.02l.89-6.34h32.06ZM114.5,27.39l-.86,4.31c-.56,2.83-.54,5.09.09,5.71.63.62.94.97,3.55,1.03l-.9,5.55c-2.89-.13-3.86-.21-5.54-.26-1.69-.04-3.12-.07-4.33-.07s-2.66.02-4.4.07-3.51.12-6.4.26l.9-5.55c2.66-.07,3.91-.42,4.8-1.07.89-.65,1.61-2.9,2.17-5.68l.91-4.57-6.06-14.41c-.1-.23-.19-.57-.33-1.01-1.13-3.58-2.65-5.37-4.59-5.37h-.66l1.16-6.34c2.01.11,3.77.19,5.26.25,1.49.06,2.81.08,3.95.08,1.25,0,3.24-.02,4.9-.08,1.66-.06,3.69-.13,6.07-.25l-1.42,6.08c-1.46,0-2.5.1-3.1.29-.62.2-.97.53-1.06.99-.13.66.09,1.93.62,3.82.19.68.26,1.23.4,1.58l2.77,7.22,6.59-9.4c.07-.1.19-.29.37-.55.74-1.12,1.15-1.85,1.22-2.21.12-.61-.1-1.05-.66-1.33-.56-.27-1.57-.41-3.05-.41h-.63l1.42-6.08c1.73.11,3.23.19,4.47.25,1.25.06,3.94.08,4.92.08,1.43,0,3.16-.06,5.17-.17,2-.1,3.2-.16,3.57-.16l-1.16,6.08h-.44c-2.14,0-4.59,2-7.31,5.99-.33.48-.57.86-.75,1.09l-11.63,14.23ZM43.58,44l.96-5.55c2.68-.04,3.44-.38,4.37-1.02.93-.64,1.61-2.39,2.26-5.2l4.65-19.96c.65-2.79.55-4.53-.09-5.16-.63-.62-1.27-.97-3.99-1.03l2.47-6.08h16.99c7.59,0,12.77.85,15.57,2.56,2.78,1.71,5.07,4.57,4.25,8.56-.54,2.63-1.84,4.84-3.87,6.63-2.04,1.79-3.65,3.03-6.94,3.74,3.65.39,5.18,1.55,6.69,3.47,1.51,1.92,2.44,4.56,1.75,7.92-.78,3.8-3.28,6.59-6.45,8.4-3.17,1.81-7.68,2.72-13.54,2.72h-25.08ZM63.89,24.14l-2.95,13.12h3.67c4.26,0,7.4-.48,9.43-1.44,2.03-.97,3.29-2.57,3.8-4.82.53-2.38-.02-4.12-1.68-5.21-1.66-1.09-4.53-1.64-8.6-1.64h-3.67ZM65.13,18.13h3.2c3.67,0,6.45-.43,8.36-1.32,1.91-.88,3.09-2.26,3.52-4.13.41-1.8-.1-3.1-1.54-3.89-1.44-.79-4.05-1.18-7.82-1.18h-3.32l-2.39,10.52ZM28.92,0h18.61l-1.15,6.34c-2.64.07-2.81-.37-3.68.27-.86.63-3.13,3.14-3.7,5.92l-3.06,15.08c-.76,3.72-1.57,6.53-2.52,8.38-.95,1.86-2.27,3.52-3.96,4.99-1.73,1.5-3.84,2.11-6.33,2.91-2.48.8-5.19.94-8.11.94-2.55,0-5.67-1.37-7.58-2.01-1.92-.65-3.46-1.6-4.61-2.82-1.41-1.49-2.28-3.16-2.62-5-.34-1.84-.27-4.52.51-7.93l3.31-14.54c.64-2.79,1.4-4.54.78-5.16-.62-.62-2.23-.98-4.82-1.07L1.14,0h21.44l-1.14,6.31c-2.63.09-3.59.45-4.45,1.07-.86.62-1.56,2.35-2.12,5.16l-2.52,12.65c-.92,4.64-1.54,7.36-.55,9.44.99,2.08,3.7,3.11,6.56,3.11s5.19-1.07,7.02-3.21c1.82-2.14,3.16-5.38,4.02-9.73l2.44-12.26c.55-2.79,1.3-4.51.69-5.13-.62-.64-2.15-.99-4.77-1.06l1.15-6.34Z"/>
  </g>
</svg>